<?xml version="1.0"?>
<svg width="184" height="49.54" xmlns="http://www.w3.org/2000/svg" xmlns:svg="http://www.w3.org/2000/svg" data-name="Layer 2">
 <defs>
  <style>.cls-1 {
        fill: #014386;
      }

      .cls-2 {
        fill: #fff;
      }

      .cls-3 {
        fill: #56b146;
      }

      .cls-4 {
        fill: none;
        stroke: #56b146;
        stroke-width: .4px;
      }</style>
 </defs>
 <g class="layer" display="inline">
  <title>Layer 1</title>
  <path d="m160.51,2.98c-160.51,-2.98 -160.51,-2.98 -160.51,-2.98l161.37,3.31l0.85,0.29l0.86,0.26" fill="none" id="svg_21" stroke="#000000" transform="matrix(1 0 0 1 0 0)"/>
  <g id="svg_32" transform="matrix(0.994017 0 0 0.994017 0.600792 0.289162)">
   <path class="cls-1" d="m177.88,4.05l3.73,0l0,0.63c0,0.54 -0.03,0.57 -1.43,1.18c-1.06,0.5 -1.29,0.71 -2.84,2.54l-4.34,4.72c7.15,8.2 8.6,9.79 10,10.88l0,0.91l-3.31,0c-1.66,0 -1.99,-0.25 -4.06,-2.82l-6.09,-7.38l0,6.41c0,1.79 0.14,2.04 1.36,2.32c0.96,0.25 1.03,0.29 1.03,0.46c0,0.07 -0.03,0.13 -0.07,0.25l-0.14,0.38c-0.14,0.3 -0.23,0.38 -0.84,0.38l-7.55,0c-0.51,0 -0.66,-0.07 -0.66,-0.25c0,-0.07 0.03,-0.13 0.07,-0.21l0.14,-0.46c0.14,-0.3 0.19,-0.38 0.77,-0.46c1.15,-0.25 1.48,-0.79 1.48,-2.38l0,-13.33c0,-1.79 -0.14,-2 -1.36,-2.3c-0.96,-0.21 -1.03,-0.25 -1.03,-0.45c0,-0.07 0.03,-0.16 0.07,-0.25l0.14,-0.41c0.14,-0.3 0.23,-0.34 0.82,-0.34l7.55,0c0.51,0 0.66,0.05 0.66,0.21c0,0.05 -0.03,0.16 -0.07,0.25l-0.12,0.43c-0.14,0.34 -0.21,0.38 -0.77,0.5c-1.13,0.21 -1.48,0.79 -1.48,2.34l0,5.84l8.34,-9.59" fill="black" id="svg_5"/>
   <path class="cls-1" d="m65.63,12.59l0,-4.75c0,-1.82 -0.1,-2 -1.36,-2.3c-0.99,-0.25 -1.03,-0.29 -1.03,-0.46c0,-0.04 0.03,-0.13 0.07,-0.25l0.16,-0.41c0.1,-0.3 0.19,-0.34 0.79,-0.34l7.55,0c0.49,0 0.66,0.05 0.66,0.21c0,0.05 -0.03,0.16 -0.07,0.25l-0.14,0.46c-0.14,0.3 -0.19,0.38 -0.77,0.46c-1.13,0.21 -1.48,0.79 -1.48,2.38l0,13.33c0,1.79 0.14,2 1.36,2.29c0.99,0.25 1.03,0.29 1.03,0.46c0,0.07 -0.03,0.16 -0.07,0.25l-0.12,0.38c-0.14,0.3 -0.23,0.38 -0.84,0.38l-7.55,0c-0.49,0 -0.66,-0.07 -0.66,-0.21c0,-0.07 0.03,-0.16 0.07,-0.25l0.14,-0.46c0.14,-0.3 0.19,-0.34 0.8,-0.46c1.13,-0.25 1.47,-0.79 1.47,-2.34l0,-6.72l-9.25,0l0,6.72c0,1.79 0.14,2 1.36,2.29c0.99,0.25 1.03,0.29 1.03,0.46c0,0.04 -0.03,0.13 -0.07,0.25l-0.16,0.38c-0.1,0.34 -0.19,0.38 -0.8,0.38l-7.55,0c-0.49,0 -0.66,-0.07 -0.66,-0.25c0,-0.04 0.03,-0.13 0.07,-0.21l0.14,-0.46c0.14,-0.3 0.19,-0.34 0.77,-0.46c1.15,-0.25 1.48,-0.79 1.48,-2.34l0,-13.36c0,-1.82 -0.14,-2.04 -1.36,-2.3c-0.99,-0.25 -1.03,-0.29 -1.03,-0.46c0,-0.07 0.03,-0.16 0.07,-0.25l0.14,-0.41c0.14,-0.3 0.19,-0.34 0.82,-0.34l7.55,0c0.49,0 0.66,0.05 0.66,0.21c0,0.05 -0.03,0.16 -0.07,0.25l-0.14,0.46c-0.14,0.3 -0.19,0.38 -0.79,0.46c-1.13,0.21 -1.45,0.79 -1.45,2.38l0,4.75l9.25,0" id="svg_1"/>
   <path class="cls-1" d="m99.28,14.59c0,5.04 -0.23,6.16 -1.52,7.82c-1.55,1.91 -3.72,2.84 -6.63,2.84c-3.47,0 -6.3,-1.25 -7.62,-3.34c-0.82,-1.34 -1.1,-2.91 -1.1,-6.47l0,-7.64c0,-1.79 -0.14,-2 -1.36,-2.3c-0.99,-0.21 -1.03,-0.25 -1.03,-0.45c0,-0.07 0.03,-0.16 0.07,-0.25l0.14,-0.41c0.14,-0.3 0.23,-0.34 0.82,-0.34l7.55,0c0.51,0 0.66,0.05 0.66,0.21c0,0.05 -0.03,0.16 -0.07,0.25l-0.14,0.43c-0.14,0.34 -0.19,0.38 -0.8,0.5c-1.13,0.25 -1.45,0.79 -1.45,2.34l0,7.72c0,3.22 0.23,4.5 1.03,5.66c0.85,1.21 2.18,1.84 3.98,1.84c2.06,0 3.65,-0.88 4.43,-2.5c0.52,-1.04 0.63,-1.95 0.63,-5.34l0,-7.36c0,-1.79 -0.14,-2 -1.36,-2.3q-1.03,-0.25 -1.03,-0.45s0.03,-0.13 0.07,-0.25l0.14,-0.41c0.14,-0.3 0.23,-0.34 0.82,-0.34l5.53,0c0.52,0 0.66,0.05 0.66,0.21c0,0.09 0,0.16 -0.03,0.25l-0.16,0.43c-0.14,0.34 -0.21,0.38 -0.77,0.5c-1.12,0.21 -1.48,0.79 -1.48,2.34l0,6.79" id="svg_2"/>
   <path class="cls-1" d="m111.14,7.8c0,-1.2 -0.14,-1.59 -0.56,-1.95c-0.3,-0.2 -0.4,-0.21 -1.69,-0.54c-0.19,-0.07 -0.33,-0.16 -0.33,-0.29c0,-0.07 0.03,-0.13 0.07,-0.25l0.14,-0.41c0.14,-0.29 0.26,-0.34 0.96,-0.34l9.33,0c3.98,0 6.65,0.54 8.64,1.68c2.65,1.57 4.05,4.29 4.05,7.95c0,4.13 -1.73,7.45 -4.97,9.5c-2.25,1.45 -4.87,2.09 -8.34,2.09c-2.55,0 -5.43,-0.29 -6.38,-0.66c-0.8,-0.3 -0.89,-0.63 -0.89,-2.59l0,-14.2m4.4,11.54c0,2.21 0.23,2.91 1.06,3.47c0.77,0.46 1.69,0.7 3.02,0.7c4.8,0 7.48,-3.29 7.48,-9.09c0,-3.97 -1.13,-6.47 -3.47,-7.66c-1.36,-0.71 -2.62,-0.91 -5.67,-0.91l-2.42,0l0,13.5z" id="svg_3"/>
   <path class="cls-1" d="m146.06,12.65l7.05,0c0.56,0 0.7,0.05 0.7,0.25c0,0.07 -0.03,0.13 -0.07,0.18l-0.51,0.84c-0.3,0.54 -0.4,0.55 -1.29,0.55l-5.9,0l0,5.2c0,3.07 0.23,3.38 2.55,3.38l2.25,0c1.62,0 2.69,-0.54 3.47,-1.79c0.23,-0.41 0.4,-0.57 0.56,-0.57c0.03,0 0.14,0 0.17,0.04l0.49,0.13c0.26,0.09 0.3,0.16 0.3,0.54l0,2.57c0,0.71 -0.37,0.95 -1.69,0.95l-9.63,0c-1.81,0 -2.32,-0.13 -2.65,-0.63c-0.23,-0.38 -0.23,-0.5 -0.23,-2.66l0,-13.77c0,-1.63 -0.26,-2.04 -1.52,-2.3c-0.99,-0.25 -1.06,-0.29 -1.06,-0.46c0,-0.07 0.03,-0.16 0.07,-0.25l0.14,-0.41c0.14,-0.3 0.26,-0.34 0.96,-0.34l13.08,0c0.92,0 1.12,0.16 1.12,0.88l0,2.04c0,0.29 -0.03,0.38 -0.19,0.5l-0.44,0.38s-0.14,0.09 -0.21,0.09c-0.1,0 -0.19,-0.09 -0.44,-0.43c-0.99,-1.41 -1.43,-1.63 -3.09,-1.63l-4.05,0l0,6.75" id="svg_4"/>
   <line class="cls-4" id="svg_6" points="null" x1="49.72" x2="183.62" y1="30.88" y2="30.88"/>
   <path class="cls-3" d="m29.15,21.18c-0.23,0.48 -0.51,1.57 -1.41,5.56c-0.96,4.25 -1.5,7.07 -1.6,8.47c-0.23,3.3 -0.31,5.2 -0.24,5.66c-0.4,0.38 -1.2,0.86 -2.41,1.43c-1.2,0.59 -2.08,0.88 -2.58,0.88c-0.17,0 -0.28,-0.02 -0.33,-0.07c-0.12,-0.64 -0.05,-2 0.17,-4.07c0.23,-1.8 0.42,-3.09 0.38,-3.02l3,-13.04l-11.03,4.95c-0.63,1.34 -0.79,1.61 -1.26,3c-0.17,0.5 -0.33,1 -0.49,1.5c-0.73,2.43 -1.24,4.91 -1.52,7.48l0.09,0.64c0.33,-0.27 0.63,-0.5 0.91,-0.71c0.17,0.38 0.24,0.75 0.24,1.11c0,0.73 -0.47,1.59 -1.43,2.54c-0.09,0.05 -0.17,0.13 -0.26,0.18c-0.38,0.25 -0.73,0.46 -1.05,0.66c0.05,0 0.12,0.02 0.17,0.02l25.78,0c4.62,0 8.39,-3.88 8.39,-8.59l0,-20.59c-0.79,0.36 -1.62,0.73 -2.55,1.14c-2.51,1.13 -2.77,1.29 -10.96,4.88" id="svg_7"/>
   <path class="cls-3" d="m30.02,18.04c2.7,-0.89 6.68,-2.36 11.91,-4.39c0.24,-0.11 0.49,-0.21 0.73,-0.32l0,-0.61c0,-4.73 -3.79,-8.59 -8.41,-8.59l-1.05,0c-0.02,1.16 -0.38,2.89 -1.1,5.22c-0.4,1.86 -1.1,4.75 -2.11,8.7" id="svg_8"/>
   <path class="cls-3" d="m8.77,29.65c-0.61,0.18 -1.48,0.48 -2.67,0.98c0,0.48 0.51,0.86 1.52,1.13c-0.05,0.54 -0.7,1.04 -1.94,1.52c-1.01,0.43 -1.87,0.64 -2.53,0.64c-0.96,0 -1.66,-0.39 -2.11,-1.2c-0.05,-0.38 0.14,-0.86 0.56,-1.48c0.42,-0.61 0.8,-1.05 1.13,-1.32c1.06,-0.75 3.49,-2.07 7.27,-3.98c0.73,-2.29 1.87,-5.72 3.38,-10.29c1.19,-3.55 1.88,-6.43 2.11,-8.61c0.4,-0.54 0.77,-1.02 1.1,-1.48c0.33,-0.45 0.75,-0.68 1.27,-0.68c0.56,0 0.85,0.38 0.85,1.11c0,0.91 -0.4,2.95 -1.19,6.14c-0.79,2.55 -1.97,6.59 -3.56,12.13l11.16,-4.47l1.19,-3.66c0.56,-1.64 1.33,-4.16 2.29,-7.56c0.05,-0.75 0.14,-1.91 0.26,-3.5c0.03,-0.04 0.31,-0.36 0.8,-0.95l-21.21,0c-4.61,0 -8.39,3.86 -8.39,8.59l0,23.01c0,3.55 2.15,6.63 5.16,7.93c0.05,-1.68 0.89,-5.32 2.48,-11.02c0.56,-1.64 0.72,-2.2 1.05,-2.98" id="svg_9"/>
   <path class="cls-2" d="m41.94,13.65c-5.23,2.02 -9.21,3.48 -11.91,4.39c1.01,-3.93 1.71,-6.82 2.11,-8.7c0.72,-2.32 1.06,-4.05 1.1,-5.22l-3.58,0c-0.49,0.57 -0.77,0.91 -0.8,0.95c-0.12,1.59 -0.19,2.77 -0.26,3.5c-0.96,3.39 -1.71,5.91 -2.29,7.56l-1.19,3.66l-11.16,4.47c1.59,-5.54 2.76,-9.57 3.56,-12.13c0.79,-3.2 1.19,-5.23 1.19,-6.14c0,-0.75 -0.28,-1.11 -0.85,-1.11c-0.51,0 -0.92,0.23 -1.27,0.68c-0.33,0.45 -0.7,0.95 -1.1,1.48c-0.23,2.18 -0.92,5.05 -2.11,8.61c-1.52,4.57 -2.65,8 -3.38,10.29c-3.77,1.91 -6.19,3.25 -7.27,3.98c-0.33,0.27 -0.72,0.71 -1.13,1.32c-0.42,0.61 -0.61,1.11 -0.56,1.48c0.45,0.8 1.15,1.2 2.11,1.2c0.68,0 1.52,-0.21 2.53,-0.64c1.24,-0.48 1.88,-0.98 1.94,-1.52c-1.01,-0.27 -1.52,-0.64 -1.52,-1.13c1.19,-0.5 2.06,-0.8 2.67,-0.98c-0.31,0.79 -0.49,1.36 -1.05,2.98c-1.59,5.7 -2.42,9.34 -2.48,11.02c0.94,0.41 1.97,0.63 3.05,0.64c0.31,-0.2 0.66,-0.41 1.05,-0.66c0.09,-0.05 0.17,-0.11 0.26,-0.18c0.96,-0.95 1.43,-1.79 1.43,-2.54c0,-0.38 -0.09,-0.73 -0.24,-1.11c-0.28,0.21 -0.58,0.45 -0.91,0.71l-0.09,-0.64c0.28,-2.55 0.79,-5.05 1.52,-7.48c0.16,-0.5 0.31,-1 0.49,-1.5c0.47,-1.39 0.63,-1.66 1.26,-3l11.03,-4.95l-3,13.04s-0.16,1.21 -0.38,3.02c-0.23,2.07 -0.28,3.43 -0.17,4.07c0.05,0.05 0.17,0.07 0.33,0.07c0.51,0 1.36,-0.29 2.58,-0.88c1.2,-0.59 2.01,-1.07 2.41,-1.43c-0.05,-0.48 0.03,-2.38 0.24,-5.66c0.1,-1.38 0.65,-4.2 1.6,-8.47c0.91,-3.98 1.19,-5.09 1.41,-5.56c8.2,-3.61 8.44,-3.75 10.96,-4.88c0.92,-0.41 1.76,-0.79 2.55,-1.14l0,-1.82c-0.24,0.11 -0.47,0.21 -0.73,0.32" id="svg_10"/>
   <g id="svg_11" transform="matrix(1.74447 0 0 1.7862 0.187134 4.05369)">
    <path class="cls-1" d="m31.48,20.01l0,1.47c0,0.81 -0.53,1.51 -1.34,1.51c-0.54,0 -0.83,-0.28 -1.03,-0.56l0,2.33l-0.55,0l0,-6.11l0.55,0l0,0.47c0.21,-0.27 0.53,-0.54 0.94,-0.54c0.81,0 1.43,0.61 1.43,1.41l0,0.02zm-0.55,-0.03c0,-0.5 -0.41,-0.92 -0.91,-0.92s-0.91,0.42 -0.91,0.92l0,1.66c0,0.5 0.41,0.9 0.91,0.9s0.91,-0.33 0.91,-0.83l0,-1.72l0,-0.01z" id="svg_12" stroke="#000000"/>
    <path class="cls-1" d="m36,18.58l0,0.49l-0.31,0c-0.52,0 -0.97,0.32 -0.97,0.84l0,3l-0.55,0l0,-4.26l0.55,0l0,0.47c0.18,-0.26 0.47,-0.54 0.97,-0.54l0.31,0z" id="svg_13" stroke="#000000"/>
    <path class="cls-1" d="m41.21,20.09l0,1.44c0,0.81 -0.66,1.46 -1.46,1.46s-1.46,-0.66 -1.46,-1.46l0,-1.44c0,-0.81 0.66,-1.49 1.46,-1.49s1.46,0.69 1.46,1.49zm-0.55,-0.06c0,-0.5 -0.41,-0.97 -0.91,-0.97s-0.91,0.47 -0.91,0.97l0,1.57c0,0.5 0.41,0.97 0.91,0.97s0.91,-0.47 0.91,-0.97l0,-1.57z" id="svg_14" stroke="#000000"/>
    <path class="cls-1" d="m46.81,20.01l0,1.47c0,0.81 -0.53,1.51 -1.34,1.51c-0.54,0 -0.83,-0.28 -1.03,-0.56l0,2.33l-0.55,0l0,-6.11l0.55,0l0,0.47c0.21,-0.27 0.53,-0.54 0.94,-0.54c0.81,0 1.43,0.61 1.43,1.41l0,0.02zm-0.55,-0.03c0,-0.5 -0.41,-0.92 -0.91,-0.92s-0.91,0.42 -0.91,0.92l0,1.66c0,0.5 0.41,0.9 0.91,0.9s0.91,-0.33 0.91,-0.83l0,-1.72l0,-0.01z" id="svg_15" stroke="#000000"/>
    <path class="cls-1" d="m49.97,20.87l0,0.66c0,0.5 0.41,1 0.91,1c0.43,0 0.79,-0.39 0.89,-0.79l0.53,0.16c-0.16,0.63 -0.74,1.1 -1.42,1.1c-0.81,0 -1.46,-0.66 -1.46,-1.46l0,-1.44c0,-0.81 0.66,-1.49 1.46,-1.49s1.46,0.69 1.46,1.49l0,0.78l-2.37,0l0,-0.01zm0,-0.93l0,0.5l1.82,0l0,-0.44c0,-0.5 -0.41,-0.94 -0.91,-0.94s-0.91,0.38 -0.91,0.88l0,0z" id="svg_16" stroke="#000000"/>
    <path class="cls-1" d="m56.82,18.58l0,0.49l-0.31,0c-0.52,0 -0.97,0.32 -0.97,0.84l0,3l-0.55,0l0,-4.26l0.55,0l0,0.47c0.18,-0.26 0.47,-0.54 0.97,-0.54l0.31,0z" id="svg_17" stroke="#000000"/>
    <path class="cls-1" d="m60.19,19.15l0,2.97c0,0.17 0.13,0.36 0.3,0.36c0.21,0 0.37,-0.06 0.37,-0.06l0,0.51s-0.24,0.06 -0.37,0.06c-0.51,0 -0.85,-0.4 -0.85,-0.87l0,-2.97l-0.63,0l0,-0.49l0.63,0l0,-1.06l0.55,-0.18l0,1.25l0.67,0l0,0.49l-0.67,0l0,-0.01z" id="svg_18" stroke="#000000"/>
    <path class="cls-1" d="m66.09,18.66l-1.18,4.27l-0.09,0.28c-0.28,0.8 -0.48,1.04 -1,1.05c-0.17,0 -0.41,-0.04 -0.41,-0.04l0,-0.51s0.17,0.05 0.42,0.04c0.34,-0.02 0.43,-0.42 0.56,-0.77c0.04,-0.11 0,-0.04 0,-0.04l-1.27,-4.27l0.55,0l0.98,3.51l0.86,-3.51l0.58,0l0,-0.01z" id="svg_19" stroke="#000000"/>
   </g>
   <path d="m180.97,3.54c1.02,-0.1 1.21,0.33 1.17,1.12l-0.03,0.37" fill="#000000" id="svg_22" stroke="#000000" transform="matrix(1 0 0 1 0 0)"/>
   <path d="m182.27,25.4c0.91,-0.02 1.28,0.09 1.51,-0.37c0.23,-0.46 -0.1,-1.04 -1.4,-2.24" fill="#054382" id="svg_23" stroke="#000000" stroke-linecap="round" transform="matrix(1 0 0 1 0 0)"/>
   <path d="m177.19,4.05c0.33,-0.4 0.69,-0.52 1.08,-0.49" fill="none" id="svg_31" stroke="#000000" stroke-linecap="round"/>
  </g>
 </g>
</svg>